<svg width="207" height="91" viewBox="0 0 207 91" fill="none" xmlns="http://www.w3.org/2000/svg">
<path d="M1.5 72.0623V24.0308L103.5 1.53604L205.5 24.0308V72.0362L97.1949 89.4782L1.5 72.0623Z" fill="#222222" stroke="#C16754" stroke-width="3"/>
<path d="M5.75 24.597L103.979 3.55469L202.208 24.597V71.141L97.9804 87.4453L5.75 71.141V24.597Z" fill="#222222"/>
<path d="M5.75 24.597L5.22634 22.1525C4.07358 22.3994 3.25 23.4181 3.25 24.597H5.75ZM202.208 24.597H204.708C204.708 23.4181 203.885 22.3994 202.732 22.1525L202.208 24.597ZM202.208 71.141L202.595 73.611C203.811 73.4206 204.708 72.3725 204.708 71.141H202.208ZM5.75 71.141H3.25C3.25 72.3538 4.1205 73.3917 5.3148 73.6028L5.75 71.141ZM103.979 3.55469L104.503 1.11015C104.158 1.0362 103.801 1.0362 103.456 1.11015L103.979 3.55469ZM97.9804 87.4453L97.5452 89.9071C97.8168 89.9551 98.0944 89.9579 98.3668 89.9153L97.9804 87.4453ZM3.25 24.597V25.7606H8.25V24.597H3.25ZM3.25 28.0878V30.415H8.25V28.0878H3.25ZM3.25 32.7422V35.0694H8.25V32.7422H3.25ZM3.25 37.3966V39.7238H8.25V37.3966H3.25ZM3.25 42.051V44.3782H8.25V42.051H3.25ZM3.25 46.7054V49.0326H8.25V46.7054H3.25ZM3.25 51.3598V53.687H8.25V51.3598H3.25ZM3.25 56.0142V58.3414H8.25V56.0142H3.25ZM3.25 60.6686V62.9958H8.25V60.6686H3.25ZM3.25 65.323V67.6502H8.25V65.323H3.25ZM3.25 69.9774V71.141H8.25V69.9774H3.25ZM5.3148 73.6028L6.46768 73.8066L7.33808 68.883L6.1852 68.6792L5.3148 73.6028ZM8.77344 74.2142L11.0792 74.6218L11.9496 69.6982L9.64384 69.2906L8.77344 74.2142ZM13.385 75.0294L15.6907 75.4371L16.5611 70.5134L14.2554 70.1058L13.385 75.0294ZM17.9965 75.8447L20.3022 76.2523L21.1726 71.3286L18.8669 70.921L17.9965 75.8447ZM22.608 76.6599L24.9138 77.0675L25.7842 72.1438L23.4784 71.7362L22.608 76.6599ZM27.2195 77.4751L29.5253 77.8827L30.3957 72.959L28.0899 72.5514L27.2195 77.4751ZM31.8311 78.2903L34.1368 78.6979L35.0072 73.7743L32.7015 73.3667L31.8311 78.2903ZM36.4426 79.1055L38.7483 79.5131L39.6187 74.5895L37.313 74.1819L36.4426 79.1055ZM41.0541 79.9207L43.3599 80.3284L44.2303 75.4047L41.9245 74.9971L41.0541 79.9207ZM45.6656 80.736L47.9714 81.1436L48.8418 76.2199L46.536 75.8123L45.6656 80.736ZM50.2771 81.5512L52.5829 81.9588L53.4533 77.0351L51.1475 76.6275L50.2771 81.5512ZM54.8887 82.3664L57.1944 82.774L58.0648 77.8503L55.7591 77.4427L54.8887 82.3664ZM59.5002 83.1816L61.8059 83.5892L62.6763 78.6656L60.3706 78.2579L59.5002 83.1816ZM64.1117 83.9968L66.4175 84.4044L67.2879 79.4808L64.9821 79.0732L64.1117 83.9968ZM68.7232 84.812L71.029 85.2197L71.8994 80.296L69.5936 79.8884L68.7232 84.812ZM73.3348 85.6273L75.6405 86.0349L76.5109 81.1112L74.2051 80.7036L73.3348 85.6273ZM77.9463 86.4425L80.252 86.8501L81.1224 81.9264L78.8167 81.5188L77.9463 86.4425ZM82.5578 87.2577L84.8636 87.6653L85.734 82.7416L83.4282 82.334L82.5578 87.2577ZM87.1693 88.0729L89.4751 88.4805L90.3455 83.5569L88.0397 83.1493L87.1693 88.0729ZM91.7809 88.8881L94.0866 89.2957L94.957 84.3721L92.6513 83.9645L91.7809 88.8881ZM96.3924 89.7033L97.5452 89.9071L98.4156 84.9835L97.2628 84.7797L96.3924 89.7033ZM98.3668 89.9153L99.5512 89.73L98.7785 84.7901L97.5941 84.9753L98.3668 89.9153ZM101.92 89.3595L104.289 88.9889L103.516 84.049L101.147 84.4195L101.92 89.3595ZM106.658 88.6183L109.026 88.2478L108.254 83.3079L105.885 83.6784L106.658 88.6183ZM111.395 87.8772L113.764 87.5067L112.991 82.5668L110.623 82.9373L111.395 87.8772ZM116.133 87.1361L118.502 86.7656L117.729 81.8257L115.36 82.1962L116.133 87.1361ZM120.871 86.395L123.239 86.0245L122.467 81.0845L120.098 81.4551L120.871 86.395ZM125.608 85.6539L127.977 85.2834L127.204 80.3434L124.835 80.714L125.608 85.6539ZM130.346 84.9128L132.715 84.5423L131.942 79.6023L129.573 79.9729L130.346 84.9128ZM135.083 84.1717L137.452 83.8012L136.68 78.8612L134.311 79.2318L135.083 84.1717ZM139.821 83.4306L142.19 83.0601L141.417 78.1201L139.048 78.4907L139.821 83.4306ZM144.559 82.6895L146.928 82.3189L146.155 77.379L143.786 77.7496L144.559 82.6895ZM149.296 81.9484L151.665 81.5778L150.892 76.6379L148.524 77.0085L149.296 81.9484ZM154.034 81.2073L156.403 80.8367L155.63 75.8968L153.261 76.2674L154.034 81.2073ZM158.772 80.4662L161.14 80.0956L160.368 75.1557L157.999 75.5263L158.772 80.4662ZM163.509 79.7251L165.878 79.3545L165.105 74.4146L162.737 74.7851L163.509 79.7251ZM168.247 78.984L170.616 78.6134L169.843 73.6735L167.474 74.044L168.247 78.984ZM172.985 78.2429L175.353 77.8723L174.581 72.9324L172.212 73.3029L172.985 78.2429ZM177.722 77.5018L180.091 77.1312L179.318 72.1913L176.949 72.5618L177.722 77.5018ZM182.46 76.7607L184.829 76.3901L184.056 71.4502L181.687 71.8207L182.46 76.7607ZM187.197 76.0195L189.566 75.649L188.793 70.7091L186.425 71.0796L187.197 76.0195ZM191.935 75.2784L194.304 74.9079L193.531 69.968L191.162 70.3385L191.935 75.2784ZM196.673 74.5373L199.041 74.1668L198.269 69.2269L195.9 69.5974L196.673 74.5373ZM201.41 73.7962L202.595 73.611L201.822 68.671L200.638 68.8563L201.41 73.7962ZM204.708 71.141V69.9774H199.708V71.141H204.708ZM204.708 67.6502V65.323H199.708V67.6502H204.708ZM204.708 62.9958V60.6686H199.708V62.9958H204.708ZM204.708 58.3414V56.0142H199.708V58.3414H204.708ZM204.708 53.687V51.3598H199.708V53.687H204.708ZM204.708 49.0326V46.7054H199.708V49.0326H204.708ZM204.708 44.3782V42.051H199.708V44.3782H204.708ZM204.708 39.7238V37.3966H199.708V39.7238H204.708ZM204.708 35.0694V32.7422H199.708V35.0694H204.708ZM204.708 30.415V28.0878H199.708V30.415H204.708ZM204.708 25.7606V24.597H199.708V25.7606H204.708ZM202.732 22.1525L201.563 21.902L200.515 26.7911L201.685 27.0416L202.732 22.1525ZM199.224 21.401L196.885 20.9L195.838 25.789L198.176 26.29L199.224 21.401ZM194.546 20.399L192.207 19.8979L191.16 24.787L193.499 25.288L194.546 20.399ZM189.869 19.3969L187.53 18.8959L186.483 23.785L188.821 24.286L189.869 19.3969ZM185.191 18.3949L182.852 17.8939L181.805 22.783L184.144 23.284L185.191 18.3949ZM180.513 17.3929L178.175 16.8919L177.127 21.781L179.466 22.282L180.513 17.3929ZM175.836 16.3909L173.497 15.8899L172.45 20.779L174.789 21.28L175.836 16.3909ZM171.158 15.3889L168.82 14.8879L167.772 19.7769L170.111 20.278L171.158 15.3889ZM166.481 14.3869L164.142 13.8858L163.095 18.7749L165.433 19.2759L166.481 14.3869ZM161.803 13.3848L159.464 12.8838L158.417 17.7729L160.756 18.2739L161.803 13.3848ZM157.126 12.3828L154.787 11.8818L153.739 16.7709L156.078 17.2719L157.126 12.3828ZM152.448 11.3808L150.109 10.8798L149.062 15.7689L151.401 16.2699L152.448 11.3808ZM147.77 10.3788L145.432 9.87779L144.384 14.7669L146.723 15.2679L147.77 10.3788ZM143.093 9.37678L140.754 8.87577L139.707 13.7649L142.046 14.2659L143.093 9.37678ZM138.415 8.37476L136.076 7.87375L135.029 12.7628L137.368 13.2638L138.415 8.37476ZM133.738 7.37275L131.399 6.87174L130.352 11.7608L132.69 12.2618L133.738 7.37275ZM129.06 6.37073L126.721 5.86972L125.674 10.7588L128.013 11.2598L129.06 6.37073ZM124.383 5.36871L122.044 4.8677L120.996 9.75678L123.335 10.2578L124.383 5.36871ZM119.705 4.36669L117.366 3.86569L116.319 8.75477L118.658 9.25578L119.705 4.36669ZM115.027 3.36468L112.689 2.86367L111.641 7.75275L113.98 8.25376L115.027 3.36468ZM110.35 2.36266L108.011 1.86165L106.964 6.75073L109.302 7.25174L110.35 2.36266ZM105.672 1.36064L104.503 1.11015L103.456 5.99923L104.625 6.24972L105.672 1.36064ZM103.456 1.11015L102.286 1.36065L103.333 6.24973L104.503 5.99923L103.456 1.11015ZM99.9473 1.86166L97.6085 2.36267L98.6559 7.25175L100.995 6.75074L99.9473 1.86166ZM95.2697 2.86367L92.931 3.36468L93.9783 8.25376L96.3171 7.75276L95.2697 2.86367ZM90.5922 3.86569L88.2534 4.3667L89.3007 9.25578L91.6395 8.75477L90.5922 3.86569ZM85.9146 4.86771L83.5758 5.36871L84.6231 10.2578L86.9619 9.75679L85.9146 4.86771ZM81.237 5.86972L78.8982 6.37073L79.9455 11.2598L82.2843 10.7588L81.237 5.86972ZM76.5594 6.87174L74.2206 7.37275L75.268 12.2618L77.6068 11.7608L76.5594 6.87174ZM71.8819 7.87375L69.5431 8.37476L70.5904 13.2638L72.9292 12.7628L71.8819 7.87375ZM67.2043 8.87577L64.8655 9.37678L65.9128 14.2659L68.2516 13.7649L67.2043 8.87577ZM62.5267 9.87779L60.1879 10.3788L61.2352 15.2679L63.574 14.7669L62.5267 9.87779ZM57.8491 10.8798L55.5103 11.3808L56.5576 16.2699L58.8964 15.7689L57.8491 10.8798ZM53.1715 11.8818L50.8327 12.3828L51.8801 17.2719L54.2189 16.7709L53.1715 11.8818ZM48.494 12.8838L46.1552 13.3848L47.2025 18.2739L49.5413 17.7729L48.494 12.8838ZM43.8164 13.8858L41.4776 14.3869L42.5249 19.2759L44.8637 18.7749L43.8164 13.8858ZM39.1388 14.8879L36.8 15.3889L37.8473 20.278L40.1861 19.7769L39.1388 14.8879ZM34.4612 15.8899L32.1224 16.3909L33.1697 21.28L35.5085 20.779L34.4612 15.8899ZM29.7836 16.8919L27.4448 17.3929L28.4922 22.282L30.8309 21.781L29.7836 16.8919ZM25.106 17.8939L22.7672 18.3949L23.8146 23.284L26.1534 22.783L25.106 17.8939ZM20.4285 18.8959L18.0897 19.3969L19.137 24.286L21.4758 23.785L20.4285 18.8959ZM15.7509 19.898L13.4121 20.399L14.4594 25.288L16.7982 24.787L15.7509 19.898ZM11.0733 20.9L8.73449 21.401L9.78181 26.2901L12.1206 25.789L11.0733 20.9ZM6.39569 21.902L5.22634 22.1525L6.27366 27.0416L7.44302 26.7911L6.39569 21.902Z" fill="#C16754"/>
<path d="M58.601 35.5839C56.897 36.2319 55.577 37.2399 54.641 38.6079C53.705 39.9519 53.237 41.6079 53.237 43.5759C53.237 44.4639 53.321 45.0879 53.489 45.4479C53.657 45.7839 53.741 45.9759 53.741 46.0239C52.445 46.0239 51.473 45.7599 50.825 45.2319C50.201 44.6799 49.889 43.7799 49.889 42.5319C49.889 40.9959 50.513 39.5079 51.761 38.0679C53.033 36.6039 54.653 35.4279 56.621 34.5399C58.589 33.6279 60.557 33.1719 62.525 33.1719C62.861 33.1719 63.341 33.1959 63.965 33.2439L64.289 55.3839L71.849 33.3519H76.421L76.745 55.3839L84.305 33.3519H86.825L76.817 60.1719H71.633L71.201 41.8479L64.361 60.1719H59.177L58.601 35.5839ZM89.4499 60.3879C87.6739 60.3879 86.2939 59.9319 85.3099 59.0199C84.3259 58.0839 83.8339 56.6319 83.8339 54.6639C83.8339 53.0079 84.1579 51.1839 84.8059 49.1919C85.4539 47.1999 86.5099 45.4839 87.9739 44.0439C89.4379 42.5799 91.2979 41.8479 93.5539 41.8479C96.1939 41.8479 97.5139 42.9999 97.5139 45.3039C97.5139 46.6479 97.1299 47.8839 96.3619 49.0119C95.5939 50.1399 94.5739 51.0519 93.3019 51.7479C92.0299 52.4199 90.6739 52.8039 89.2339 52.8999C89.1859 53.6199 89.1619 54.0999 89.1619 54.3399C89.1619 55.5159 89.3659 56.3199 89.7739 56.7519C90.1819 57.1599 90.8419 57.3639 91.7539 57.3639C93.0499 57.3639 94.1539 57.0639 95.0659 56.4639C96.0019 55.8639 97.0219 54.9519 98.1259 53.7279H99.3499C96.6859 58.1679 93.3859 60.3879 89.4499 60.3879ZM89.5219 51.1719C90.4099 51.1239 91.2499 50.8119 92.0419 50.2359C92.8579 49.6599 93.5059 48.9279 93.9859 48.0399C94.4899 47.1519 94.7419 46.2159 94.7419 45.2319C94.7419 44.2479 94.4419 43.7559 93.8419 43.7559C92.9779 43.7559 92.1259 44.5119 91.2859 46.0239C90.4699 47.5359 89.8819 49.2519 89.5219 51.1719ZM102.906 60.3879C101.274 60.3879 100.026 59.9919 99.1623 59.1999C98.2983 58.3839 97.8663 57.2439 97.8663 55.7799C97.8663 55.0599 97.9503 54.3759 98.1183 53.7279L101.97 35.6919L107.298 34.9719L105.57 43.0719C106.242 42.6639 106.794 42.3999 107.226 42.2799C107.658 42.1359 108.09 42.0639 108.522 42.0639C111.354 42.0639 112.77 44.1159 112.77 48.2199C112.77 49.8759 112.446 51.6519 111.798 53.5479C111.174 55.4199 110.118 57.0279 108.63 58.3719C107.166 59.7159 105.258 60.3879 102.906 60.3879ZM104.922 56.8959C105.666 56.8959 106.362 56.4399 107.01 55.5279C107.658 54.5919 108.174 53.4399 108.558 52.0719C108.942 50.6799 109.134 49.3479 109.134 48.0759C109.134 47.1159 108.966 46.2999 108.63 45.6279C108.294 44.9559 107.826 44.6199 107.226 44.6199C106.866 44.6199 106.458 44.6799 106.002 44.7999C105.57 44.8959 105.27 45.0519 105.102 45.2679L103.122 54.4119C103.05 54.6999 103.014 54.9759 103.014 55.2399C103.014 56.3439 103.65 56.8959 104.922 56.8959ZM115.446 49.3359H122.646L122.034 52.1799H114.798L115.446 49.3359ZM130.568 40.2279C129.776 40.2279 129.104 39.9519 128.552 39.3999C128 38.8479 127.724 38.1759 127.724 37.3839C127.724 36.5919 128 35.9199 128.552 35.3679C129.104 34.7919 129.776 34.5039 130.568 34.5039C131.36 34.5039 132.032 34.7919 132.584 35.3679C133.16 35.9199 133.448 36.5919 133.448 37.3839C133.448 38.1759 133.16 38.8479 132.584 39.3999C132.032 39.9519 131.36 40.2279 130.568 40.2279ZM128.12 60.3879C126.968 60.3879 126.032 60.0279 125.312 59.3079C124.616 58.5879 124.268 57.5079 124.268 56.0679C124.268 55.4679 124.364 54.6879 124.556 53.7279L127.004 42.1719H132.188L129.596 54.4119C129.5 54.7719 129.452 55.1559 129.452 55.5639C129.452 56.0439 129.56 56.3919 129.776 56.6079C130.016 56.7999 130.4 56.8959 130.928 56.8959C131.624 56.8959 132.272 56.6079 132.872 56.0319C133.472 55.4319 133.904 54.6639 134.168 53.7279H135.68C134.792 56.3199 133.652 58.0839 132.26 59.0199C130.868 59.9319 129.488 60.3879 128.12 60.3879ZM137.537 60.3879C136.313 60.3879 135.401 60.0159 134.801 59.2719C134.225 58.5279 133.937 57.5439 133.937 56.3199C133.937 55.6959 134.009 55.0599 134.153 54.4119L136.457 43.6119H135.269L135.557 42.1719H136.745L137.825 37.2039L143.153 36.4839C142.937 37.3959 142.817 37.9359 142.793 38.1039C142.625 38.7759 142.337 40.1319 141.929 42.1719H144.089L143.801 43.6119H141.641L139.337 54.4119C139.217 54.9399 139.157 55.3599 139.157 55.6719C139.157 56.5359 139.577 56.9679 140.417 56.9679C140.849 56.9679 141.161 56.9319 141.353 56.8599C140.873 58.2519 140.309 59.1879 139.661 59.6679C139.013 60.1479 138.305 60.3879 137.537 60.3879Z" fill="#C16754"/>
</svg>
