<svg width="175" height="144" viewBox="0 0 175 144" fill="none" xmlns="http://www.w3.org/2000/svg">
<path d="M170.996 122.953C169.486 122.764 168.066 123.414 167.196 124.537L161.284 123.797L169.801 115.393C171.182 115.751 172.709 115.393 173.789 114.31C175.41 112.679 175.401 110.044 173.778 108.426C172.154 106.805 169.523 106.811 167.899 108.435C166.83 109.511 166.473 111.023 166.82 112.394L159.208 119.907L161.746 110.246C163.089 109.846 164.226 108.841 164.608 107.383C165.191 105.162 163.865 102.89 161.647 102.305C159.426 101.719 157.152 103.049 156.57 105.269C156.186 106.726 156.683 108.161 157.656 109.172L154.899 119.664L151.783 108.384C152.747 107.363 153.223 105.922 152.823 104.468C152.209 102.256 149.923 100.956 147.711 101.564C143.772 102.654 143.529 108.321 147.711 109.507L150.154 118.364C148.298 119.168 135.475 124.72 134.155 125.296C135.05 121.362 134.849 122.23 138.09 108.022C138.106 108.105 138.288 106.769 138.296 106.098C138.529 98.3475 131.352 91.2014 121.668 94.52C121.195 94.6905 121.748 94.3837 111.765 99.6542C114.082 90.5012 115.691 80.7385 116.431 71.5156C127.181 78.0599 131.504 70.8036 132.679 67.6659C132.835 67.2496 145.812 28.4629 145.812 28.4629L154.704 19.5385C156.068 19.8699 157.554 19.5721 158.616 18.5062C160.238 16.876 160.229 14.2409 158.605 12.6203C156.982 11.0012 154.35 11.008 152.727 12.6317C151.665 13.7012 151.374 15.1876 151.708 16.5535L143.979 24.3114L146.573 14.4442C147.917 14.0422 149.053 13.0373 149.436 11.5798C150.02 9.35743 148.693 7.08585 146.474 6.5019C144.254 5.9151 141.981 7.24459 141.397 9.46552C141.014 10.9216 141.51 12.356 142.484 13.3673L139.727 23.8573L136.612 12.58C137.575 11.5584 138.051 10.118 137.652 8.66361C137.038 6.4516 134.751 5.15137 132.539 5.76064C130.326 6.37206 129.029 8.66361 129.638 10.8813C130.039 12.3314 131.187 13.3199 132.535 13.7033L135.403 24.0831C135.403 24.0831 128.413 37.7629 121.489 51.3207C120.564 50.3929 119.634 49.4611 118.803 48.6271C117.666 47.4874 116.629 46.4458 115.706 45.5201C114.587 38.858 112.732 33.2422 110.28 28.6933C111.246 27.3357 111.827 25.6855 111.827 23.8955C111.827 19.3102 108.111 15.5954 103.532 15.5954C103.089 15.5954 102.665 15.6585 102.241 15.7241L97.5389 11.0187C97.5635 10.7365 97.623 10.4675 97.623 10.1811C97.623 4.57705 93.0914 0 87.4989 0C81.9068 0 77.3752 4.57705 77.3752 10.1811C77.3752 10.4675 77.4347 10.7365 77.4593 11.0187L72.7576 15.7245C72.3338 15.6589 71.9096 15.5957 71.4673 15.5957C66.8875 15.5957 63.1718 19.3106 63.1718 23.8958C63.1718 25.6862 63.7532 27.336 64.7188 28.6937C62.2668 33.2429 60.4121 38.8584 59.2925 45.5204C58.37 46.4461 57.3323 47.4874 56.1952 48.6275C55.3647 49.4615 54.435 50.3932 53.51 51.321C46.5858 37.7632 39.5961 24.0835 39.5961 24.0835L42.4634 13.7037C43.8112 13.3202 44.9593 12.3317 45.3607 10.8817C45.9695 8.66397 44.6727 6.37241 42.4595 5.761C40.2477 5.15172 37.9603 6.45196 37.3468 8.66397C36.9476 10.1183 37.4235 11.5587 38.387 12.5804L35.2715 23.8577L32.5143 13.3677C33.4885 12.3564 33.9847 10.9224 33.6015 9.46587C33.0173 7.24494 30.7449 5.91546 28.5245 6.50226C26.3052 7.0862 24.9788 9.35779 25.5627 11.5801C25.9459 13.0377 27.0816 14.0429 28.4254 14.4446L31.0201 24.3118L23.2914 16.5539C23.6261 15.188 23.3349 13.7015 22.2723 12.6321C20.6493 11.0083 18.0172 11.0015 16.3946 12.6207C14.7706 14.2413 14.7617 16.8763 16.3832 18.5065C17.4455 19.5724 18.9308 19.8703 20.2957 19.5389L29.1872 28.4632C29.1872 28.4632 42.1643 67.2499 42.3201 67.6662C43.4961 70.8039 47.8188 78.0603 58.5682 71.5159C59.3085 80.7389 60.9176 90.5015 63.2345 99.6546C53.2512 94.3844 53.8041 94.6908 53.3314 94.5203C43.6472 91.2014 36.4703 98.3475 36.7038 106.098C36.7113 106.769 36.8934 108.106 36.9098 108.023C40.1504 122.231 39.9497 121.362 40.8447 125.296C39.5251 124.72 26.7012 119.169 24.8455 118.365L27.289 109.508C31.471 108.321 31.2272 102.654 27.289 101.565C25.0761 100.956 22.7902 102.256 22.1764 104.468C21.7771 105.922 22.253 107.363 23.2165 108.384L20.1011 119.664L17.3439 109.172C18.317 108.161 18.8132 106.726 18.43 105.27C17.8472 103.05 15.5734 101.719 13.353 102.306C11.1348 102.89 9.80838 105.162 10.3912 107.384C10.7744 108.842 11.9111 109.847 13.2535 110.246L15.7912 119.907L8.17972 112.395C8.52691 111.024 8.16974 109.511 7.10073 108.436C5.47671 106.811 2.8457 106.805 1.22168 108.426C-0.400914 110.044 -0.409825 112.679 1.21063 114.31C2.29069 115.393 3.81811 115.751 5.19867 115.393L13.7159 123.798L7.8033 124.538C6.93355 123.415 5.51414 122.764 4.00383 122.953C1.72535 123.24 0.109889 125.319 0.393629 127.593C0.677726 129.871 2.75587 131.49 5.03684 131.209C6.54715 131.019 7.76089 130.038 8.32694 128.734L17.5699 127.576C18.5448 128.119 45.129 142.9 45.129 142.9C48.0092 144.502 51.5445 144.344 54.2711 142.494C56.9976 140.643 58.4541 137.414 58.0299 134.144C56.947 125.797 55.9225 117.936 55.9179 117.899C56.4708 118.264 70.9664 128.239 78.3173 133.256C81.2043 136.389 84.2922 138.266 87.4996 138.266C90.707 138.266 93.795 136.389 96.682 133.256C104.033 128.239 118.529 118.264 119.081 117.899C119.077 117.936 118.052 125.797 116.969 134.144C116.545 137.414 118.002 140.643 120.728 142.494C123.455 144.344 126.99 144.502 129.87 142.9C129.87 142.9 156.455 128.119 157.429 127.576L166.672 128.734C167.238 130.038 168.452 131.019 169.962 131.209C172.243 131.49 174.322 129.871 174.605 127.593C174.89 125.318 173.274 123.239 170.996 122.953Z" fill="#C16754"/>
</svg>
